<svg id="Layer_1" data-name="Layer 1" xmlns="http://www.w3.org/2000/svg" viewBox="0 0 237.13 40.67"><defs><style>.cls-1,.cls-2{fill:#fff;}.cls-2{fill-rule:evenodd;}</style></defs><path class="cls-1" d="M45.15,12.37h4.36c.2,1.76,1.35,2.5,3.44,2.5,1.42,0,2.82-.52,2.82-1.84s-1.42-1.69-3.83-2.28c-3-.71-6.25-1.65-6.25-5.33s3-5.4,7-5.4,6.75,1.72,6.92,5.4H55.33c-.17-1.35-1.2-2.11-2.82-2.11S50,4,50,5c0,1.22,1.35,1.52,4,2.11,3.26.76,6.2,1.76,6.2,5.52S57,18.3,53,18.3C48.31,18.3,45.24,16.24,45.15,12.37Z"/><path class="cls-1" d="M66.64.34H71.1l6.33,17.55H72.87l-1-3.17H65.7l-1,3.17H60.33Zm4.19,11.27L69.51,7.36c-.3-.91-.69-2.48-.69-2.48h0s-.42,1.57-.71,2.48l-1.35,4.25Z"/><path class="cls-1" d="M78.65.34H83l5.2,8.81,1.21,2.23h0s0-2.11,0-2.72V.34h4.24V17.89H89.3L84.15,9.2c-.29-.46-1.25-2.35-1.25-2.35h-.05s.05,2.25.05,2.87v8.17H78.65Z"/><path class="cls-1" d="M96.09.34h4.35V17.89H96.09Z"/><path class="cls-1" d="M107.16,4h-5.11V.34h14.6V4H111.5V17.89h-4.34Z"/><path class="cls-1" d="M121.14.34h4.47l6.33,17.55h-4.57l-1-3.17h-6.13l-1,3.17h-4.36Zm4.2,11.27L124,7.36c-.29-.91-.69-2.48-.69-2.48h0s-.42,1.57-.72,2.48l-1.35,4.25Z"/><path class="cls-1" d="M135.27,4h-5.1V.34h14.59V4h-5.15V17.89h-4.34Z"/><path class="cls-1" d="M146.4.34h4.35V17.89H146.4Z"/><path class="cls-1" d="M152.44,9.15C152.44,3.9,155.8,0,161.1,0s8.69,3.9,8.69,9.15-3.37,9.15-8.69,9.15S152.44,14.4,152.44,9.15Zm12.93,0c0-3.19-1.4-5.64-4.24-5.64S156.86,6,156.86,9.15s1.44,5.62,4.27,5.62S165.37,12.34,165.37,9.15Z"/><path class="cls-1" d="M171.47.34h4.37L181,9.15l1.21,2.23h0s0-2.11,0-2.72V.34h4.24V17.89h-4.37L177,9.2c-.29-.46-1.25-2.35-1.25-2.35h-.05s.05,2.25.05,2.87v8.17h-4.25Z"/><path class="cls-1" d="M46,22.34h8.39c3.49,0,6.14,1.79,6.14,5.06a4.2,4.2,0,0,1-3,4.24v.08A3.52,3.52,0,0,1,60,34.93c.36,2.31.12,4.52.73,4.74v.22H56.53c-.46-.27-.39-2.33-.66-4.08A2.57,2.57,0,0,0,53,33.31H50.32v6.58H46Zm7.61,7.76c1.71,0,2.6-.81,2.6-2.14s-.84-2.18-2.5-2.18H50.32V30.1Z"/><path class="cls-1" d="M62.46,22.34h4.35V39.89H62.46Z"/><path class="cls-1" d="M70.88,37.83a9.71,9.71,0,0,1-2.36-6.65,9.59,9.59,0,0,1,2.6-6.85,8.19,8.19,0,0,1,6-2.33c4.52,0,7.22,2.4,7.78,6.08H80.69a3.23,3.23,0,0,0-3.41-2.5c-2.89,0-4.34,2.41-4.34,5.6s1.67,5.59,4.42,5.59a3.59,3.59,0,0,0,3.8-3.07v-.05H77.87V30.46h7.31v9.43h-3l-.25-2.11h0a5.49,5.49,0,0,1-5,2.5A7.86,7.86,0,0,1,70.88,37.83Z"/><path class="cls-1" d="M87.29,22.34h4.34V29h6.16V22.34h4.34V39.89H97.79V32.58H91.63v7.31H87.29Z"/><path class="cls-1" d="M108.85,26h-5.1V22.34h14.6V26h-5.16V39.89h-4.34Z"/><path class="cls-1" d="M118.88,34.37h4.37c.2,1.76,1.35,2.5,3.43,2.5,1.43,0,2.83-.52,2.83-1.84s-1.43-1.69-3.83-2.28c-3-.71-6.26-1.65-6.26-5.33s3-5.4,7-5.4,6.75,1.72,6.92,5.4h-4.25c-.17-1.35-1.2-2.11-2.82-2.11s-2.52.66-2.52,1.65c0,1.22,1.35,1.52,4,2.11,3.26.76,6.21,1.76,6.21,5.52s-3.14,5.71-7.19,5.71C122.05,40.3,119,38.24,118.88,34.37Z"/><path class="cls-1" d="M144.4,39.6c-.58-.76-.32-2.89-.23-4.09.08-1.46.17-3.76.17-5.14-.09-1.2.15-4.26-.58-5.4-.5-.53-3.83.32-4.88-.55a2.12,2.12,0,0,1-.29-2c.49-1.05,5-.91,6.6-.76s4.58-.12,6-.15c.56-.06,1.73.18,1.84.82a1.93,1.93,0,0,1-.81,1.87c-.82.41-3.25.09-3.92.73s-.46,2.86-.52,4.73c-.15,3.77.17,7.39-.56,9.84A1.56,1.56,0,0,1,144.4,39.6Z"/><path class="cls-1" d="M166.86,22.2c2.27,2.19,2.68,6,2.19,9.05a10.1,10.1,0,0,1-1.73,4.93,9,9,0,0,1-8.09,4.44,6,6,0,0,1-5.31-3c-1.26-1.9-1.73-3.07-1.55-6.17.2-3.5,1.14-6.48,2.95-8.17a7.74,7.74,0,0,1,5.81-3C163,20.24,165.6,20.68,166.86,22.2ZM155.9,33a6.49,6.49,0,0,0,3.33,4.35c2.22.76,4.12-.82,4.91-2a12.19,12.19,0,0,0,1.55-6c-.06-2.25-1.43-4.73-2.92-5.2a6.66,6.66,0,0,0-2.69-.38,4.64,4.64,0,0,0-3.21,2.43A15.74,15.74,0,0,0,155.9,33Z"/><path class="cls-1" d="M185.6,22.2c2.28,2.19,2.69,6,2.19,9.05a10.1,10.1,0,0,1-1.72,4.93A9,9,0,0,1,178,40.62a6,6,0,0,1-5.32-3c-1.25-1.9-1.72-3.07-1.54-6.17.2-3.5,1.13-6.48,2.95-8.17a7.73,7.73,0,0,1,5.81-3C181.78,20.24,184.35,20.68,185.6,22.2ZM174.65,33A6.44,6.44,0,0,0,178,37.38c2.22.76,4.12-.82,4.9-2a12.08,12.08,0,0,0,1.55-6c-.06-2.25-1.43-4.73-2.92-5.2a6.61,6.61,0,0,0-2.68-.38,4.65,4.65,0,0,0-3.22,2.43A15.9,15.9,0,0,0,174.65,33Z"/><path class="cls-1" d="M194.68,20.62c.55,1.25-.32,5-.44,6.31-.14,1.54-.49,3.82-.61,5.6-.06,1.2-.41,4.33-.12,4.65a15.23,15.23,0,0,0,3,0c1.52-.23,2.92-.5,3.62.17a1.43,1.43,0,0,1-.76,2.46c-2.42.32-4.41.41-7.18.55-.76,0-1.08.15-1.49-.06-.91-.44-.79-1.89-.56-3.53.21-2.86.7-7.57,1-9.93s.32-6.57,2.33-6.54C194.07,20.24,194.36,20.24,194.68,20.62Z"/><path class="cls-1" d="M211.56,22.34a6.27,6.27,0,0,1,1.78-1.2c1.08-.17,2,.47,2,1.2s-1,1.49-1.64,2a46.75,46.75,0,0,0-5.55,5.2,2.07,2.07,0,0,0,.82,1.28,36.77,36.77,0,0,1,4.73,5.49c.53.67,1.49,1.58,1.49,2.51a1.88,1.88,0,0,1-1.93,1.73c-.79,0-1.4-.94-1.87-1.61a43.61,43.61,0,0,0-3.15-4A27.36,27.36,0,0,0,206,32.48c-.41,1.4.14,4.78-.29,6.3a1.9,1.9,0,0,1-2.25,1.29c-.64-.12-1.05-1.08-1.08-2.22-.06-2.43.23-4.88.35-8.47.26-2.25,0-6.48.87-8.38.68-1.05,2-1.4,2.78-.35.35,1.66-.44,4.73-.56,6.42C207.79,26.25,209.63,23.51,211.56,22.34Z"/><path class="cls-1" d="M221,20.12c.41,1-.26,4.56-.32,5.93-.12,2.78-.41,5.46-.41,8.44,0,1.46,0,4.59-.41,5.26a2.49,2.49,0,0,1-2.37.84c-1-.38-.73-2-.67-3.3.06-.81,0-3,.09-4,.14-2.42.41-5.43.58-8.32a40.1,40.1,0,0,1,.41-4.59,2.43,2.43,0,0,1,1.81-.93C220,19.45,220.78,19.48,221,20.12Z"/><path class="cls-1" d="M228.49,39.6c-.58-.76-.32-2.89-.23-4.09.09-1.46.17-3.76.17-5.14-.08-1.2.15-4.26-.58-5.4-.5-.53-3.83.32-4.88-.55a2.12,2.12,0,0,1-.29-2c.5-1.05,5-.91,6.6-.76s4.59-.12,6-.15c.55-.06,1.72.18,1.84.82a1.92,1.92,0,0,1-.82,1.87c-.82.41-3.24.09-3.91.73s-.47,2.86-.53,4.73c-.14,3.77.18,7.39-.55,9.84A1.57,1.57,0,0,1,228.49,39.6Z"/><path class="cls-2" d="M10.82,26.76l2.82-.19L15.05,19s2.61,0,2.83,0-2.36,7.27.18,7.45c2.73.36,3.58-.47,3.58-.47l.28-1.81s-1.57,1.08-1.76-.67A29,29,0,0,1,21,19h3.43s-.82,9-2.63,9.84c.07.57,1.43,1.76,1.78,1.81,1.35-.12,2.85-3.55,4-11.63a12,12,0,0,1,1.6,0l.37-2s-1.27,0-1.62,0c-.1-2.24,1.72-1.81,1.72-1.81l.65-1.14,5.37,5.24L20.7,37l-9.88-10.2Z"/><path class="cls-2" d="M20.89,37.72V40.2S41.71,40,40.22,17C37.84,2.31,23.08-.33,19.85.08c17.78,1.5,18.54,17.38,18.54,17.38S40.2,34.8,20.89,37.72Z"/><path class="cls-2" d="M19.76,2.56c0-.95.09-2.48.09-2.48S2.64.18.1,18.09C-1.41,36,15.24,41.15,20.89,40.2,9,41,1.07,28.45,2.35,18.38,4.05,8.66,11.29,2.85,19.76,2.56Z"/><path class="cls-2" d="M20.23,3.32,5,20.47l3.86,4.1,2.44-.1L12.75,17h5.62l.49-1.95L22,14.68,21.52,17h3.39s.3-4.68,4.44-4c-.75-1.14-9.12-9.72-9.12-9.72Zm-5.52,13-2-2s1.89-2,1.95-2.1,2.1,2.08,2.1,2.08l-2.07,2Z"/></svg>